<?xml version="1.0" encoding="UTF-8" standalone="no"?>
<svg
   xmlns:dc="http://purl.org/dc/elements/1.1/"
   xmlns:cc="http://creativecommons.org/ns#"
   xmlns:rdf="http://www.w3.org/1999/02/22-rdf-syntax-ns#"
   xmlns:svg="http://www.w3.org/2000/svg"
   xmlns="http://www.w3.org/2000/svg"
   xmlns:sodipodi="http://sodipodi.sourceforge.net/DTD/sodipodi-0.dtd"
   xmlns:inkscape="http://www.inkscape.org/namespaces/inkscape"
   version="1.1"
   id="Layer_2"
   x="0px"
   y="0px"
   width="827.41748"
   height="239.35797"
   viewBox="0 0 827.41748 239.35797"
   enable-background="new 0 0 600 600"
   xml:space="preserve"
   inkscape:version="0.91 r13725"
   sodipodi:docname="react-typescript.svg"><metadata
     id="metadata4186"><rdf:RDF><cc:Work
         rdf:about=""><dc:format>image/svg+xml</dc:format><dc:type
           rdf:resource="http://purl.org/dc/dcmitype/StillImage" /><dc:title /></cc:Work></rdf:RDF></metadata><defs
     id="defs4184" /><sodipodi:namedview
     pagecolor="#ffffff"
     bordercolor="#666666"
     borderopacity="1"
     objecttolerance="10"
     gridtolerance="10"
     guidetolerance="10"
     inkscape:pageopacity="0"
     inkscape:pageshadow="2"
     inkscape:window-width="1600"
     inkscape:window-height="876"
     id="namedview4182"
     showgrid="false"
     inkscape:zoom="0.65985584"
     inkscape:cx="193.70266"
     inkscape:cy="-118.28098"
     inkscape:window-x="0"
     inkscape:window-y="24"
     inkscape:window-maximized="1"
     inkscape:current-layer="Layer_2"
     fit-margin-top="0"
     fit-margin-left="0"
     fit-margin-right="0"
     fit-margin-bottom="0" /><g
     id="g4792"
     transform="matrix(0.703055,0,0,0.703055,569.45382,-163.46928)"
     style="fill:#231f20;fill-opacity:1"
     inkscape:export-filename="/home/rj/Repositories/rjz/rjzaworski.com/static/images/react-typescript/react-typescript.png"
     inkscape:export-xdpi="65.425003"
     inkscape:export-ydpi="65.425003"><g
       id="g4197"
       style="fill:#231f20;fill-opacity:1" /></g><g
     transform="translate(775.27005,59.312201)"
     style="font-style:normal;font-weight:normal;font-size:207.7033844px;line-height:125%;font-family:Sans;letter-spacing:0px;word-spacing:0px;fill:#231f20;fill-opacity:1;stroke:none;stroke-width:1px;stroke-linecap:butt;stroke-linejoin:miter;stroke-opacity:1"
     id="flowRoot4803"><path
       id="path4144"
       style="font-style:normal;font-variant:normal;font-weight:normal;font-stretch:normal;font-family:'Droid Sans Mono';-inkscape-font-specification:'Droid Sans Mono';fill:#231f20;fill-opacity:1"
       d="m -327.75189,68.885872 -39.24864,0 0,-15.21265 39.24864,0 0,-39.451473 15.11123,0 0,39.451473 39.24864,0 0,15.21265 -39.24864,0 0,39.045798 -15.11123,0 0,-39.045798 z M -559.78774,-32.12899 c -4.28127,0.0156 -8.24127,0.25796 -10.88689,0.75848 -21.73705,4.13131 -36.80019,18.04991 -41.05862,38.00731 -1.20761,5.72028 -0.82651,19.89459 0.6989,25.55131 1.8432,6.80077 6.2928,14.936269 10.99613,20.020959 8.13551,8.77109 17.03297,14.30069 37.68952,23.19889 18.05064,7.81771 24.407,11.56717 27.52137,16.01627 2.41523,3.49573 2.98676,5.5296 2.98676,10.169381 0,5.14825 -1.52491,8.64422 -5.21131,12.01283 -8.64397,7.75415 -26.18664,8.70728 -38.96192,1.97007 -4.44911,-2.35167 -11.82091,-9.40693 -15.18951,-14.55517 l -2.41573,-3.559041 -11.50386,6.673661 c -6.35586,3.6864 -13.09333,7.56347 -14.87297,8.58041 -1.8432,1.0805 -3.49622,2.09694 -3.68689,2.35117 -0.44491,0.76271 6.73746,11.37749 10.42386,15.44524 9.40667,10.42361 24.66049,18.36869 40.74082,21.22882 7.3728,1.33473 23.6438,1.52541 30.50813,0.3178 22.18196,-3.74996 37.94524,-15.06364 44.3011,-31.716 5.78384,-15.31762 3.87658,-35.911111 -4.64028,-48.813511 -7.62703,-11.56766 -19.89409,-19.70217 -48.55902,-32.032539 -15.57186,-6.73722 -20.52943,-10.04226 -23.1989,-15.57186 -1.27117,-2.54235 -1.71558,-4.38604 -1.71558,-7.50042 -0.0636,-10.61428 7.75465,-16.97039 19.89434,-16.14413 8.26262,0.57203 13.66485,3.81401 18.8131,11.31393 1.71608,2.54234 3.24099,4.19437 3.62234,3.94014 10.55073,-6.54654 27.96629,-18.24133 27.83917,-18.74979 -0.4449,-1.71609 -5.9107,-8.89771 -9.5971,-12.83835 -7.11856,-7.3728 -14.87296,-11.8862 -25.04234,-14.42855 -4.32993,-1.07255 -12.35917,-1.67337 -19.49462,-1.64731 z m -171.86645,1.82607 c -25.15133,0.0208 -43.02719,0.13953 -43.17021,0.33021 -0.25423,0.19067 -0.44565,7.62703 -0.44565,16.52524 l 0,16.08082 26.05903,0 26.05903,0 0,74.045779 0,74.045781 18.432,0 18.432,0 0,-74.045781 0,-74.045779 26.05903,0 26.05903,0 -0.12663,-16.39862 -0.19117,-16.33406 -69.97778,-0.19117 c -9.61324,-0.0159 -18.80491,-0.0194 -27.18868,-0.0124 z m 587.95779,-2.091028 c -4.34575,1.051925 -8.13268,2.977079 -11.11935,5.970821 -5.77104,5.784427 -7.41976,14.567525 -6.51452,24.4665743 0.90523,9.8990566 4.4358,21.3337187 10.44196,33.6096077 9.96196,20.36138 26.69864,43.08719 47.96282,64.301607 21.473214,21.422408 44.763732,38.512098 65.318304,48.409958 12.171682,5.86118 23.429983,9.20356 33.166163,9.94996 9.7361798,0.74638 18.337784,-1.0664 24.014608,-6.75654 5.855956,-5.86964 7.679421,-14.854 6.873593,-25.11513 C 25.641344,112.18177 22.111072,100.27083 15.839639,87.523816 5.8868198,67.293859 -11.375086,45.454657 -32.007795,24.870522 -52.165451,4.7601746 -73.794003,-11.867217 -93.59869,-21.785291 c -13.05092,-6.536197 -25.18342,-10.338831 -35.62626,-11.338822 -5.22143,-0.499998 -10.1257,-0.32176 -14.47145,0.730165 z m 2.66423,10.25076 c 2.86572,-0.680536 6.47658,-0.920032 10.80434,-0.505609 8.6555,0.828831 19.75661,4.183198 31.916654,10.273222 18.317873,9.173476 39.333748,25.204381 58.871506,44.696286 20.065077,20.017846 36.6998433,41.27669 45.8369429,59.848619 5.8072901,11.80362 8.8937581,22.62951 9.5587921,31.09777 0.665034,8.46828 -1.185737,14.20594 -3.832669,16.85906 -2.5737792,2.57982 -7.8349014,4.30386 -15.7602014,3.69629 -7.9252996,-0.60757 -18.1280486,-3.50883 -29.4047196,-8.93903 -19.069242,-9.18261 -41.698959,-25.67546 -62.45104,-46.378343 -20.551495,-20.503404 -36.675385,-42.53397 -45.943475,-61.477126 -5.57863,-11.402075 -8.6717,-21.822377 -9.41432,-29.9431262 -0.74261,-8.1207568 0.93695,-13.5218708 3.4842,-16.0750218 1.3474,-1.350597 3.46827,-2.472455 6.33399,-3.152991 z m 93.035055,-36.13889 c -4.11025,1.191734 -8.24938,3.363295 -12.311393,6.227274 -8.124005,5.727965 -16.267983,14.497205 -23.90394,25.831436 -12.6651,18.7994167 -23.995322,44.648984 -31.755192,73.666223 -7.83592,29.302116 -11.00948,58.014505 -9.31914,80.765615 1.00089,13.47207 3.72716,24.89516 7.94282,33.70295 4.21565,8.80779 10.08171,15.35446 17.846456,17.43104 8.009793,2.14181 16.704573,-0.76519 25.191979,-6.58792 8.487414,-5.82272 17.043108,-14.82966 24.954558,-26.62895 12.556133,-18.72568 22.856072,-44.58783 30.38532,-72.743261 7.355769,-27.507006 10.9598047,-54.54925 9.6620074,-76.6602876 -0.8552874,-14.5710184 -3.6193834,-26.9812334 -7.9683204,-36.5279464 -4.348943,-9.546707 -10.416413,-16.640138 -18.587016,-18.824952 -3.946726,-1.05537 -8.02789,-0.842956 -12.138139,0.348779 z m 2.778621,10.211234 c 2.648246,-0.781565 4.898676,-0.859436 6.640713,-0.393605 3.686089,0.985655 8.124419,5.108123 11.729038,13.020895 3.604612,7.912778 6.242362,19.206309 7.039268,32.78273 1.200368,20.451146 -2.192828,46.664151 -9.322376,73.325199 -7.322106,27.380842 -17.432508,52.409455 -28.959524,69.600345 -7.325932,10.92603 -15.162907,19.00652 -22.167394,23.81191 -7.004038,4.80506 -12.899393,6.06721 -16.519965,5.09945 l -7.03e-4,2.1e-4 c -3.520313,-0.94178 -7.641193,-4.6392 -11.072553,-11.80837 -3.43158,-7.16962 -6.01324,-17.45775 -6.94055,-29.93924 -1.56819,-21.10717 1.41839,-48.949659 8.9912,-77.267857 7.499782,-28.044723 18.533632,-53.0147621 30.316609,-70.504795 7.092447,-10.527489 14.575413,-18.411379 21.240023,-23.110367 3.332305,-2.349497 6.378108,-3.834933 9.026347,-4.616498 z M -80.460188,11.91835 c -29.298132,7.850411 -55.757442,19.445538 -74.621772,32.275195 -11.17038,7.597381 -19.70354,15.665662 -25.22747,23.717765 -5.52393,8.05211 -8.26437,16.404059 -6.18406,24.167902 2.14594,8.008748 9.00789,14.088128 18.29208,18.531598 9.2842,4.44348 21.36064,7.35641 35.53427,8.31534 l -2.2e-4,-7.1e-4 c 22.49389,1.52208 50.043788,-2.47469 78.195312,-10.01788 C -26.968832,101.5381 -1.7428174,91.149351 16.763017,78.978787 28.958223,70.95842 38.328287,62.363967 44.42575,53.827403 50.523212,45.290831 53.636762,36.492604 51.447772,28.323168 49.332989,20.430722 42.557487,14.603156 33.536975,10.427044 24.51647,6.2509676 12.852597,3.57784 -0.78066556,2.6253622 -23.393291,1.0454429 -51.4465,4.1442985 -80.460188,11.918491 Z m 2.723649,10.164791 c 28.041314,-7.513648 55.184594,-10.43063 76.2221652,-8.96076 12.6628498,0.884682 23.2307788,3.428244 30.6308128,6.85414 7.400026,3.425895 11.233096,7.586511 12.166535,11.07017 0.987575,3.685681 -0.366453,9.589199 -5.420343,16.664731 -5.053875,7.075545 -13.519269,15.00235 -24.882121,22.475311 -17.1165142,11.256853 -41.518843,21.413094 -68.1762,28.555915 -27.377053,7.335652 -54.11045,11.080922 -74.76064,9.683602 -13.12466,-0.88796 -24.03973,-3.64035 -31.70183,-7.30747 -7.6621,-3.667124 -11.70061,-8.14344 -12.67053,-11.763217 -0.94316,-3.519929 0.20005,-8.936603 4.6966,-15.491114 4.49654,-6.554504 12.11982,-13.930796 22.46885,-20.969543 17.50143,-11.902757 43.11246,-23.224979 71.426701,-30.811765 z m 4.463612,16.658424 c -11.849057,3.174947 -18.884437,15.360584 -15.70949,27.209634 3.174941,11.849057 15.36036,18.883615 27.209417,15.708668 11.84905,-3.174948 18.883825,-15.359531 15.708878,-27.208588 C -49.239069,42.602223 -61.42387,35.566618 -73.272927,38.741565 Z" /></g></svg>